<svg width="386" height="188" viewBox="0 0 386 188" fill="none" xmlns="http://www.w3.org/2000/svg">
<path d="M2.53424 89.6503C0.131957 91.0121 -0.711518 94.0635 0.650285 96.4658C2.01209 98.868 5.06348 99.7115 7.46576 98.3497L2.53424 89.6503ZM7.46576 98.3497L164.466 9.34971L159.534 0.650284L2.53424 89.6503L7.46576 98.3497Z" fill="black"/>
<path d="M2.53424 98.3497C0.131957 96.9879 -0.711518 93.9365 0.650285 91.5342C2.01209 89.132 5.06348 88.2885 7.46576 89.6503L2.53424 98.3497ZM7.46576 89.6503L164.466 178.65L159.534 187.35L2.53424 98.3497L7.46576 89.6503Z" fill="black"/>
<path d="M6 89C3.23858 89 1 91.2386 1 94C1 96.7614 3.23858 99 6 99V89ZM6 99H386V89H6V99Z" fill="black"/>
</svg>
